<svg width="252" height="219" viewBox="0 0 252 219" fill="none" xmlns="http://www.w3.org/2000/svg">
<g clip-path="url(#clip0_20624_269)">
<path d="M157.539 76.2462C155.537 74.7555 154.667 72.3172 153.323 70.297C152.51 69.0856 152.03 67.7097 151.506 66.3595C151.297 65.6124 150.621 64.8739 150.828 64.0789C151.001 63.6094 151.623 63.6094 151.852 64.036C154.017 63.1587 156.839 70.3056 157.635 71.9505C158.099 73.2288 159.625 74.8138 158.63 76.1451C158.342 76.4433 157.876 76.4878 157.537 76.2445L157.539 76.2462Z" fill="#AFDCD9"/>
<path d="M160.893 80.1718C155.829 76.1726 154.856 72.5983 162.72 73.6332C163.824 72.6 170.852 61.632 171.707 65.7924C173.121 66.512 168.73 69.8704 168.15 70.674C166.845 71.8049 165.951 73.3094 164.752 74.5413C164.881 76.0132 163.478 77.2229 163.114 78.6314C162.788 79.6184 162.09 81.3524 160.891 80.1701L160.893 80.1718ZM160.17 77.0362C160.187 77.0122 160.204 76.9882 160.22 76.9642C160.173 76.9573 160.127 76.9488 160.081 76.9402C160.11 76.9728 160.139 77.0036 160.168 77.0362H160.17Z" fill="#AFDCD9"/>
<path d="M160.121 118.781C157.252 115.817 159.158 99.3592 159.076 94.6283C159.148 91.1945 159.302 87.7607 159.378 84.3269C159.614 83.3228 158.566 77.8346 160.289 78.597C160.734 76.0491 162.845 76.4843 162.612 79.01C162.65 84.9249 162.236 90.8398 162.366 96.7598C162.404 100.159 162.239 103.557 162.416 106.957C162.535 109.527 162.532 112.099 162.41 114.667C162.359 116.139 162.53 119.967 160.121 118.781Z" fill="#AFDCD9"/>
<path d="M73.1516 78.3964C71.9666 78.1874 70.9803 77.4506 70.2576 76.5099C69.4784 75.6052 68.4236 74.9969 67.6427 74.0939C65.682 71.5922 63.014 69.5138 61.6663 66.5974C61.5926 66.3181 61.7553 65.9943 62.0019 65.8915C63.4147 63.4704 67.1547 69.327 68.3893 70.2711C69.7987 71.5939 71.4769 72.5912 72.5745 74.2344C73.3366 75.1151 74.561 75.8982 74.5045 77.197C74.4788 77.8841 73.8726 78.5523 73.1499 78.3964H73.1516Z" fill="#AFDCD9"/>
<path d="M72.8666 82.4285C72.1954 81.7893 70.7329 77.7558 71.5583 77.0567C73.353 75.8385 76.8806 75.9104 79.0571 75.859C80.9032 73.6401 82.7937 71.3594 85.2493 69.7916C86.3076 68.9212 88.0697 69.1748 87.2186 70.8231C87.7427 72.1665 85.3093 73.0284 84.5181 73.8268C83.1413 75.2439 81.6412 76.5221 80.0897 77.7404C79.4356 79.776 80.2319 81.5717 77.3122 81.7002C75.9319 81.702 74.0739 82.922 72.8649 82.4302L72.8666 82.4285Z" fill="#AFDCD9"/>
<path d="M74.7648 83.7099C73.0935 83.8333 72.3417 82.346 74.1398 81.7154C74.5028 81.6915 74.5953 82.3357 74.1878 82.2946C74.1415 82.3323 74.0987 82.3768 74.0627 82.4248C74.1638 82.4368 74.2665 82.4317 74.3693 82.4248C74.5491 81.9793 75.02 81.9211 75.4293 81.832C75.9858 81.6143 76.7307 80.9547 77.2273 81.6006C77.7651 81.6915 77.9894 82.3169 77.777 82.7829C77.1794 83.6791 75.7478 83.8179 74.7666 83.7082L74.7648 83.7099Z" fill="#AFDCD9"/>
<path d="M74.3831 89.5873C72.1004 88.8728 75.9055 85.5555 76.772 86.4482C77.296 86.4671 77.534 87.0925 77.3525 87.5329C77.4689 88.4342 75.1914 89.7672 74.3831 89.5856V89.5873Z" fill="#AFDCD9"/>
<path d="M77.9313 84.5359C77.3508 84.2258 77.159 83.3005 77.26 82.6871C77.433 82.2433 77.9005 80.8794 78.505 81.4894C78.719 81.8612 78.3697 82.3102 78.4639 82.73C78.6386 83.3896 79.0941 84.6319 77.9296 84.5377L77.9313 84.5359Z" fill="#AFDCD9"/>
<path d="M77.2755 132.093C76.9724 132.057 76.7395 131.821 76.6059 131.56C74.7753 129.684 75.0082 122.592 74.7239 119.826C74.7068 116.936 73.056 99.5098 75.2377 98.8724C75.2856 97.2086 75.3404 95.5431 75.337 93.8776C74.8044 92.9506 73.9619 88.9257 75.4757 88.6446C75.6264 88.3294 75.9398 88.0723 76.2908 88.0209C76.558 87.4761 76.5032 86.7187 76.9844 86.3143C76.9912 86.0539 77.0083 85.7934 77.046 85.5364C77.046 85.5364 77.046 85.5364 77.0477 85.5381C78.7105 82.7143 78.5084 91.7374 78.6403 92.4794C78.6403 92.4691 78.6403 92.4588 78.6403 92.4485C79.2362 99.5954 79.1677 106.761 79.279 113.923C79.1557 117.032 80.8922 131.764 77.2755 132.095V132.093ZM77.1607 100.762C77.1967 103.716 77.1179 106.672 77.1984 109.626C77.1984 109.595 77.195 109.563 77.195 109.532C77.195 109.556 77.1967 109.582 77.1984 109.606C77.195 106.526 77.2035 103.449 77.1693 100.37C77.1659 100.5 77.1624 100.632 77.1607 100.762Z" fill="#AFDCD9"/>
<path d="M78.888 37.2817C76.4016 37.5644 74.3124 35.438 76.5369 33.4281C77.7921 32.6468 79.9498 32.7136 80.8676 33.9798C83.2839 35.5083 80.9687 37.5284 78.888 37.2817Z" fill="#AFDCD9"/>
<path d="M95.2609 37.7994C92.4439 37.1689 93.6871 33.6391 96.165 33.7025C96.9699 33.6991 98.2131 34.0589 98.1823 35.0407C98.7149 35.733 98.321 36.6771 97.6959 37.1603C97.7199 37.1397 97.7439 37.1192 97.7679 37.0986C97.112 37.7326 96.1547 38.0444 95.2609 37.8011V37.7994Z" fill="#AFDCD9"/>
<path d="M142.215 31.4592C141.27 31.1936 140.825 30.0062 141.463 29.2265C142.642 28.0922 145.554 27.986 146.909 28.841C148.567 31.3615 143.892 32.208 142.215 31.4592Z" fill="#AFDCD9"/>
<path d="M163.255 30.5651C160.99 29.5456 163.356 27.5528 164.927 27.5305C166.379 27.2067 169.033 28.6426 167.245 30.1076C166.06 30.7673 164.559 30.8461 163.255 30.5634V30.5651Z" fill="#AFDCD9"/>
<path d="M87.918 45.1532C86.1816 44.9219 84.7072 43.008 84.6541 41.2928C84.0376 40.412 85.3476 40.6948 85.8151 40.7787C87.5943 41.0323 89.3993 41.1523 91.1922 41.1094C92.7402 41.9233 90.7624 45.8472 87.918 45.1549V45.1532ZM88.5105 44.0052C89.6356 44.0857 90.4541 43.1399 90.6785 42.1067C88.9369 42.117 87.1782 42.009 85.4846 41.5858C85.7483 42.8589 87.132 44.2691 88.5105 44.0035V44.0052Z" fill="#101010"/>
<path d="M75.4805 24.2165C74.6654 23.9852 72.1943 24.4153 72.0197 23.5911C72.0162 23.5774 72.0111 23.5637 72.0077 23.55C70.7045 22.9417 71.6292 21.5281 72.6618 21.2368C73.179 20.0785 85.5171 19.8831 83.5615 22.2786C83.1882 24.1839 77.1484 24.2371 75.4788 24.2182L75.4805 24.2165ZM73.2697 22.4156C73.9564 22.282 74.626 22.0661 75.3127 21.9273C74.6157 22.0113 73.9273 22.1655 73.2697 22.4156Z" fill="#101010"/>
<path d="M76.1976 30.6197C74.9852 30.2479 72.3446 30.4758 72.4696 28.6784C72.3395 28.6287 72.3275 28.4385 72.4182 28.3477C74.3208 25.5273 78.7902 25.0509 81.1192 27.6246C84.2975 30.5529 78.0316 30.7722 76.1976 30.6197ZM78.9786 29.3757C79.6602 29.3072 80.3229 29.1221 81.001 29.0228C79.5677 26.7181 75.5315 26.3121 73.8413 28.4916C75.4972 29.0673 77.2097 29.494 78.9786 29.3775V29.3757Z" fill="#101010"/>
<path d="M95.7351 31.1476C94.7299 30.8974 93.5124 31.1253 92.6459 30.4982C91.3444 28.4026 94.3463 26.7628 96.1324 26.6531C97.9699 26.2505 99.7696 27.258 100.624 28.8858C102.006 30.6901 100.032 31.1407 98.5435 31.1184C98.547 31.1184 98.5521 31.1184 98.5555 31.1184C98.5316 31.1202 98.5076 31.1219 98.4819 31.1236C98.4939 31.1236 98.5059 31.1236 98.5161 31.1219C97.5931 31.1904 96.6547 31.2829 95.7334 31.151L95.7351 31.1476ZM97.213 30.0458C97.5092 30.0441 97.8055 30.0372 98.1017 30.015C98.0949 30.015 98.0863 30.015 98.0795 30.015C98.1034 30.015 98.1274 30.0115 98.1531 30.0098C98.148 30.0098 98.1428 30.0098 98.136 30.0098C98.7251 29.9499 99.3227 29.9618 99.9049 29.847C99.1343 28.2655 97.4664 27.2923 95.7163 27.8114C94.8703 28.0925 93.3959 28.4985 93.4404 29.5917C94.6922 29.7699 95.9475 30.0321 97.213 30.0424V30.0458Z" fill="#101010"/>
<path d="M76.8446 29.7748C75.4644 29.3824 76.1596 26.8619 77.5364 27.1292C79.5605 27.6466 78.6752 30.0027 76.8446 29.7748Z" fill="#101010"/>
<path d="M96.702 30.6988C94.5939 30.7862 94.7926 27.7156 96.7088 27.7379C98.6627 28.0429 98.9504 30.7416 96.702 30.6988Z" fill="#101010"/>
<path d="M81.3582 27.3795C80.4009 26.0721 78.8905 25.2856 77.286 25.1417C77.0034 25.1297 76.726 25.1725 76.452 25.2325C76.4623 25.2308 76.4743 25.2274 76.4845 25.2256C75.1745 25.5803 73.8919 26.1252 72.7908 26.9254C72.7959 27.1139 72.5288 27.2373 72.4141 27.0693C72.4877 25.935 76.2499 24.5882 77.3459 24.6036C78.6696 24.6962 79.9368 25.1674 80.9677 26.0053C81.2434 26.3874 82.086 26.8329 81.7692 27.3555C81.6647 27.472 81.4678 27.5114 81.3565 27.3812L81.3582 27.3795Z" fill="#101010"/>
<path d="M100.008 28.2293C99.7733 26.6889 98.2321 25.7636 96.7457 25.9041C96.7526 25.9041 96.7577 25.9041 96.7646 25.9041C96.7509 25.9041 96.7372 25.9058 96.7235 25.9075C96.7303 25.9075 96.7372 25.9075 96.744 25.9075C96.3604 25.9418 95.982 26.0069 95.6069 26.0857C95.6138 26.0857 95.6224 26.0823 95.6292 26.0806C95.6172 26.084 95.6052 26.0874 95.5915 26.0891C95.5967 26.0891 95.6018 26.0874 95.6052 26.0857C95.571 26.0943 95.5367 26.1011 95.5025 26.1097C95.5059 26.1097 95.5076 26.1097 95.511 26.108C95.4991 26.1114 95.4871 26.1131 95.4734 26.1166C95.4768 26.1166 95.4819 26.1166 95.4854 26.1148C94.2695 26.3462 93.2814 27.1035 92.5194 27.9894C91.8653 27.5679 93.8928 26.108 94.3551 25.9538C99.9377 23.1214 101.698 29.487 100.01 28.2327L100.008 28.2293Z" fill="#101010"/>
<path d="M87.5474 37.9122C86.5696 37.6466 83.8708 36.9373 84.9034 35.5442C86.1552 34.8965 88.0389 37.3057 89.5664 36.5346C89.6435 35.7944 89.6589 35.0507 89.676 34.3071C89.676 34.3122 89.676 34.3174 89.676 34.3242C89.676 34.3157 89.676 34.3071 89.676 34.3002C89.676 34.2831 89.676 34.266 89.676 34.2471C89.676 34.2505 89.676 34.2523 89.676 34.2557C89.503 31.6461 89.2838 29.0296 89.2736 26.4114C89.2736 26.4422 89.2736 26.4714 89.2719 26.5022C89.2719 26.4697 89.2719 26.4371 89.2736 26.4046C89.2736 26.4114 89.2736 26.4183 89.2736 26.4251C89.2736 26.3943 89.2736 26.3651 89.2736 26.3343C89.2736 26.3377 89.2736 26.3429 89.2736 26.3463C89.2736 26.3069 89.2736 26.2675 89.2753 26.2281C89.2753 26.2315 89.2753 26.2366 89.2753 26.2401C89.2753 26.1595 89.2787 26.079 89.2804 25.9985C89.2804 26.0276 89.2804 26.0567 89.2787 26.0876C89.3626 25.3525 89.1349 24.4923 89.5065 23.8309C89.6383 23.1986 90.5887 23.1712 90.6076 23.872C90.4928 25.9848 90.5117 28.118 90.6538 30.2273C90.486 33.1659 92.6128 39.05 87.5491 37.9157L87.5474 37.9122Z" fill="#101010"/>
<path d="M74.6502 35.9707C74.7889 35.2219 76.1725 34.4886 76.688 33.8255C76.688 33.8255 76.688 33.8255 76.6862 33.8272C76.6914 33.8203 76.6982 33.8152 76.7034 33.81C76.7034 33.81 76.6999 33.8135 76.6982 33.8135C76.7068 33.8049 76.7154 33.7963 76.7239 33.7895C76.7205 33.7929 76.7188 33.7946 76.7154 33.798C76.7273 33.7861 76.741 33.7741 76.753 33.7604C76.7445 33.7689 76.7359 33.7775 76.7273 33.7843C76.741 33.7706 76.7565 33.7569 76.7702 33.7432C76.7684 33.7449 76.765 33.7484 76.7633 33.7501C76.9243 33.613 77.0544 33.38 77.277 33.3491C77.5219 33.3543 77.5699 33.7021 77.3952 33.8357C76.4808 34.4749 75.6143 35.5818 74.6484 35.9724L74.6502 35.9707Z" fill="#101010"/>
<path d="M76.4845 36.4591C76.4828 36.4077 76.4948 36.3512 76.5188 36.3015C77.4247 35.3317 78.3785 34.367 79.3803 33.4863C80.9044 33.4126 77.7517 35.5047 77.5308 35.892C77.536 35.8868 77.5428 35.88 77.548 35.8749C77.5394 35.8834 77.5308 35.892 77.524 35.8988C77.524 35.8988 77.5274 35.8954 77.5291 35.8954C77.238 36.0788 76.7328 37.1617 76.4863 36.4591H76.4845Z" fill="#101010"/>
<path d="M79.4255 36.3652C79.0967 36.324 79.2012 35.8991 79.4529 35.8134C79.4478 35.8169 79.4426 35.8203 79.4392 35.8237C79.8468 35.4793 80.2286 35.104 80.6088 34.7305C80.5985 34.7391 80.5883 34.7494 80.5797 34.7596C80.965 34.5215 81.3982 33.5054 81.8897 33.9303C81.9942 34.0845 81.9496 34.3107 81.8109 34.4289C80.9992 35.0355 80.3125 35.8957 79.4255 36.3652Z" fill="#101010"/>
<path d="M93.3914 36.2416C92.8794 35.9931 96.0714 33.2927 96.3985 33.4452C96.794 33.6371 96.532 34.1134 96.2015 34.2077C95.3145 34.7406 94.5473 35.4499 93.799 36.161C93.8075 36.1525 93.8161 36.1439 93.8264 36.1336C93.7305 36.2776 93.5353 36.3958 93.3914 36.2416Z" fill="#101010"/>
<path d="M95.8394 36.6923C95.2589 36.4112 96.0124 35.8715 96.2744 35.6368C97.009 35.0902 97.5861 34.2883 98.4269 33.9079C98.5845 33.8565 98.7403 33.9541 98.79 34.1066C98.8825 34.6789 98.0416 34.7972 97.7351 35.1673C97.7231 35.1758 97.7111 35.1861 97.6992 35.1947C97.7026 35.1913 97.7077 35.1878 97.7111 35.1861C97.1991 35.5922 96.6717 35.9795 96.1939 36.4215C96.1665 36.586 96.0056 36.7214 95.8377 36.694L95.8394 36.6923Z" fill="#101010"/>
<path d="M97.7316 37.2887C96.8583 37.1157 99.3533 35.5495 99.5656 35.1589C99.8961 34.8779 100.204 35.4313 99.8996 35.6575C99.1444 36.1424 98.5211 36.8946 97.7316 37.2887Z" fill="#101010"/>
<path d="M152.584 40.7274C149.993 40.7291 146.945 38.541 147.575 35.6966C146.821 34.7148 149.063 34.0208 149.705 33.6302C151.983 32.6363 154.533 32.4941 156.894 33.3012C158.577 33.9437 158.839 36.1095 158.211 37.602C157.214 39.6821 154.788 40.6742 152.585 40.7274H152.584ZM153.147 39.7558C155.2 39.5536 157.767 38.4896 157.805 36.0941C156.493 38.6866 153.361 39.8158 150.614 39.1201C151.239 39.5005 151.938 39.7096 152.669 39.7421C152.669 39.7421 152.668 39.7421 152.666 39.7421C152.827 39.7558 152.986 39.7575 153.147 39.7558ZM152.757 38.2394C154.428 38.1143 156.305 36.9663 156.868 35.3505C154.384 36.322 151.621 36.5105 148.972 36.5859C149.125 36.8326 149.304 37.0605 149.481 37.2901C149.477 37.2867 149.474 37.2816 149.472 37.2781C150.145 38.3542 151.642 38.1777 152.757 38.2394ZM148.994 35.0815C149.657 35.0472 150.322 35.0095 150.984 34.9632C150.952 34.9649 150.918 34.9684 150.885 34.9701C152.573 34.7542 154.301 34.6548 155.947 34.211C153.609 33.6096 151.128 33.9934 148.994 35.0815Z" fill="#101010"/>
<path d="M147.318 30.7141C146.039 28.293 149.023 26.6669 150.705 25.5754C151.445 24.9431 151.085 23.7608 151.743 23.0737C152.435 22.6711 152.32 23.8088 152.385 24.208C153.025 26.6206 150.501 27.5288 149.018 28.7607C149.047 28.7316 149.077 28.7025 149.106 28.6733C148.859 28.9406 148.607 29.2714 148.57 29.6415C149.287 30.087 149.962 29.5746 150.635 29.3862C151.013 29.3793 151.185 29.7408 151.5 29.8762C152.286 30.2977 152.858 29.513 153.507 29.2508C154.043 29.2508 154.5 29.7357 155.068 29.614C156.271 29.9225 155.084 31.2521 153.594 30.3851C152.882 31.2898 151.479 31.4971 150.58 30.7484C149.712 31.5126 148.092 31.6788 147.318 30.7124V30.7141Z" fill="#101010"/>
<path d="M164.848 26.694C163.692 26.6803 160.837 25.8407 161.879 24.2934C162.139 24.0672 162.552 24.0741 162.749 24.3791C164.574 26.4935 168.239 25.2238 169.656 23.1728C167.386 20.8562 163.346 21.1406 161.875 24.1803C161.752 24.4494 161.303 24.7252 161.195 24.2951C161.522 21.6016 164.339 19.7459 166.961 20.0749C168.461 20.3662 171.581 21.5262 170.948 23.4744C169.663 25.4809 167.28 26.9425 164.846 26.6957L164.848 26.694Z" fill="#101010"/>
<path d="M165.797 25.2341C163.718 24.9394 164.315 21.5261 166.338 21.8757C168.492 22.0487 167.807 25.5442 165.797 25.2341Z" fill="#101010"/>
<path d="M161.415 24.8524C160.822 24.5406 161.66 23.0224 162.168 23.4782C162.249 23.6461 162.252 23.9323 162.042 24.0043C162.06 24.3966 161.98 25.0769 161.415 24.8507V24.8524Z" fill="#101010"/>
<path d="M160.533 21.9667C161.317 20.7724 162.473 19.633 163.901 19.1652C163.894 19.1686 163.888 19.1703 163.881 19.1738C165.446 18.5484 167.278 18.4147 168.766 19.316C169.179 19.6176 170.458 20.1333 169.7 20.7056C168.866 20.6268 168.201 19.6553 167.283 19.5439C167.299 19.5473 167.316 19.5524 167.331 19.5559C167.275 19.5405 167.218 19.5267 167.162 19.5113C167.169 19.513 167.176 19.5148 167.181 19.5165C166.049 19.2646 164.871 19.5096 163.799 19.9003C163.812 19.8951 163.826 19.89 163.84 19.8831C163.768 19.9123 163.694 19.9414 163.62 19.9688C163.62 19.9688 163.624 19.9688 163.624 19.9671C163.615 19.9705 163.607 19.974 163.597 19.9774C162.554 20.0699 160.733 22.5767 160.531 21.9633L160.533 21.9667Z" fill="#101010"/>
<path d="M158.136 18.0635C156.592 16.7339 165.736 14.0043 166.745 14.2391C169.178 14.1534 171.99 14.018 174.041 15.5259C174.488 15.9971 174.053 16.9429 173.387 16.8333C170.423 15.908 167.175 15.9217 164.138 16.5197C162.522 16.679 159.385 18.5433 158.136 18.0618V18.0635Z" fill="#101010"/>
<path d="M55.6969 303C55.1575 302.985 54.3595 303.004 54.1951 302.354C53.9982 301.09 53.8252 299.817 53.6403 298.549C52.8765 293.532 52.1436 288.508 51.3644 283.492C51.3713 283.528 51.3764 283.566 51.3833 283.602C50.0133 277.137 49.8934 270.525 49.3489 263.962C48.5714 257.281 47.746 250.601 47.3231 243.884C45.9908 222.059 44.5044 200.223 45.0438 178.344C44.953 172.105 44.6191 165.871 44.3211 159.639C44.1225 154.345 43.5283 148.932 44.2732 143.675C41.7987 146.811 39.0519 149.694 36.2949 152.576C37.2916 160.194 36.5552 167.926 36.3103 175.58C35.9593 179.713 37.8121 182.192 32.2398 182.5C32.6371 187.915 33.1646 193.328 33.3666 198.754C33.9317 203.196 33.7399 202.546 30.0513 204.765C29.0427 205.338 28.0135 206.282 26.7977 206.223C24.5989 205.228 23.9876 202.36 23.1964 200.276C21.5525 194.255 20.5764 188.05 20.001 181.839C20.001 181.851 20.0044 181.863 20.0061 181.873C19.7578 179.807 19.4873 177.746 19.215 175.683C18.6875 178.414 18.1516 181.142 17.7851 183.897C17.1926 185.521 14.8089 185.16 13.4029 185.204C11.1562 184.884 8.8564 184.69 6.68331 184.012C2.60084 181.873 3.64372 176.123 4.02217 172.305C1.0956 170.282 -0.78638 168.325 0.321572 164.593C1.37644 158.789 2.64707 152.91 5.43493 147.66C2.86798 140.765 5.97607 133.332 7.18676 126.437C8.37691 119.318 10.538 112.464 13.5434 105.901C16.761 97.5842 20.2185 89.3698 23.6673 81.1503C23.2101 81.0389 22.9036 80.6277 22.8094 80.1822C21.4891 82.2041 18.3759 82.5485 19.1636 79.3666C17.6019 80.7391 16.0264 79.1198 16.297 77.3549C16.6018 73.7824 17.9563 70.3863 19.7818 67.326C25.8815 57.4821 37.2744 52.914 48.2786 51.1543C52.4279 50.7139 56.6987 48.6697 60.8548 49.5676C60.913 46.641 61.0329 43.7161 61.1887 40.7946C58.5447 38.8978 58.1234 34.758 60.1595 32.2598C59.9284 31.5367 60.0636 30.7382 60.0499 29.9877V30.0066C60.2349 23.5639 60.7383 16.609 67.458 13.6892C67.4306 13.6995 67.4049 13.7098 67.3775 13.72C67.4306 13.6978 67.4837 13.6738 67.535 13.6464C67.5179 13.6566 67.5008 13.6652 67.4837 13.6755C67.5419 13.6429 67.6001 13.6138 67.6618 13.5967C70.1345 10.7129 73.544 8.37916 77.3371 7.74346C80.4349 7.30824 83.5464 8.15126 86.6562 7.91138C90.5435 8.05359 101.911 1.86625 100.955 9.51861C104.063 8.5625 107.409 9.37126 105.594 13.2317C108.283 13.9377 108.599 17.3783 106.676 19.1106C105.471 20.7333 103.637 21.6157 102.205 22.9882C102.219 23.9529 102.392 24.9004 102.505 25.8566V25.8531C102.505 25.8686 102.508 25.884 102.51 25.8977C102.51 25.884 102.507 25.8703 102.505 25.8566C102.835 33.5912 102.914 41.5331 101.008 49.0844C104.733 48.5224 108.397 49.3448 112.04 50.0542C115.465 50.6248 118.907 51.0497 122.333 51.5912C125.979 50.2307 129.851 49.84 133.689 49.4082C138.631 48.4538 143.631 47.8524 148.638 47.3555C148.683 46.6804 148.655 46.0036 148.684 45.3285C143.128 44.2798 138.173 40.8032 138.603 34.585C138.492 29.1927 139.471 23.8707 140.204 18.5452C140.078 18.0294 140.453 17.5394 140.441 17.0099C138.078 16.5438 137.293 13.4682 137.497 11.3657C137.607 9.75507 138.968 8.77497 140.167 7.90624C141.497 5.5999 143.297 3.23189 146.167 2.84636C147.186 2.63217 148.231 3.26273 149.212 2.86178C151.861 1.49271 155.168 -0.234466 157.926 1.78572C160.762 0.0842401 164.643 -1.04151 167.434 1.44474C170.232 0.466344 174.489 1.56982 174.51 5.08072C176.673 5.35488 178.626 7.24998 178.537 9.50319C180.233 10.1577 180.52 12.4641 179.592 13.8623C180.591 17.2978 180.397 21.0743 179.925 24.592C182.748 25.5893 183.983 29.5371 181.608 31.6378C180.928 32.7841 178.99 32.9263 179 34.1155C179.318 34.4085 179.221 34.878 179.221 35.2687C179.217 36.3807 179.306 37.4893 179.255 38.6031C179.313 41.2967 179.472 43.9851 179.399 46.6855C190.112 47.8575 201.171 49.2009 210.737 54.5229C215.184 57.0537 220.287 59.9204 221.456 65.3401C221.912 66.8548 221.998 69.5295 219.984 69.8242C226.572 74.9852 232.384 81.0715 238.466 86.8099C242.211 90.5041 246.191 94.0613 248.969 98.59C252.044 102.214 252.808 106.784 251.128 111.239C251.137 111.217 251.143 111.194 251.152 111.172C251.106 111.309 251.059 111.453 251.003 111.587C247.888 119.057 241.461 124.589 235.144 129.374C229.121 134.098 223.337 139.168 217.037 143.521C215.49 144.502 214.093 145.896 212.369 146.521C211.56 146.494 211.344 145.39 211.872 144.876C211.677 144.592 211.514 144.288 211.327 143.999C210.255 144.814 209.236 145.882 208.015 146.418C208.015 146.567 208.022 146.716 208.026 146.865V146.858C208.182 150.191 208.521 153.512 208.757 156.841C208.67 158.001 209.611 160.734 208.211 161.181C208.238 161.173 208.265 161.164 208.293 161.157C206.262 161.646 204.118 161.587 202.039 161.644C200.126 161.697 198.152 162.161 196.265 161.69C194.607 161.411 195.032 157.049 194.785 155.652C194.785 155.681 194.787 155.71 194.789 155.738C194.763 155.133 194.761 154.525 194.753 153.918C193.581 154.973 193.081 156.517 192.254 157.816C192.454 171.142 191.21 184.459 189.838 197.716C189.841 197.682 189.845 197.646 189.846 197.61C189.086 208.153 187.749 218.634 186.418 229.115C186.422 229.081 186.425 229.049 186.427 229.014C185.653 242.708 183.918 256.344 181.88 269.901C181.401 272.494 181.164 275.122 180.652 277.708C180.13 280.684 179.162 283.585 178.99 286.616C190.453 302.968 180.406 298.269 171.217 289.76C170.826 291.344 171.439 295.44 168.866 294.734C167.792 294.469 166.405 294.8 165.555 293.982C165.341 293.722 165.299 293.384 165.304 293.057C165.285 290.77 165.451 288.485 165.442 286.196C165.581 280.686 165.528 275.172 165.619 269.658C165.609 250.04 166.782 230.448 166.871 210.836C167.27 204.208 167.288 197.576 167.348 190.938C167.451 186.524 167.908 182.115 167.665 177.698C167.665 177.718 167.665 177.739 167.667 177.759C167.388 173.34 167.276 168.914 167.127 164.49C167.127 164.53 167.131 164.569 167.133 164.608C166.439 157.211 166.944 149.615 165.302 142.35C165.319 142.385 165.335 142.421 165.352 142.457C164.953 141.715 164.263 141.1 163.518 140.714C163.55 140.726 163.584 140.74 163.617 140.752C163.576 140.735 163.533 140.717 163.49 140.702C162.089 143.749 162.589 147.337 162.124 150.609C161.588 155.457 161.06 160.304 160.324 165.128C157.932 184.318 155.072 203.461 152.746 222.668C151.332 235.452 149.061 248.152 148.166 260.989C147.994 264.326 148.292 267.658 148.402 270.989C148.371 275.784 147.765 280.574 147.929 285.37C147.929 285.353 147.929 285.338 147.926 285.321C148.056 287.399 148.076 289.479 148.107 291.559C148.063 292.259 148.464 293.576 147.426 293.658C146.025 294.339 144.326 294.407 142.788 294.589C140.266 294.911 141.376 290.814 140.6 289.215C137.18 293.148 134.034 296.991 128.317 296.852C126.972 296.869 121.45 297.222 123.436 294.714C125.931 293.449 128.647 292.546 130.892 290.826C130.865 290.85 130.837 290.874 130.81 290.898C132.382 288.778 131.151 285.304 131.562 282.768C132.305 272.082 130.901 261.467 130.443 250.808C130.137 233.188 130.118 215.562 129.88 197.942C129.262 190.029 130.423 182.165 130.753 174.267C130.753 174.276 130.752 174.286 130.75 174.296C130.764 174.151 130.776 174.003 130.789 173.858C130.789 173.873 130.786 173.889 130.784 173.902C131.332 168.407 131.604 162.888 131.769 157.367C127.501 156.918 123.213 156.716 118.994 155.882C117.292 155.575 113.966 155.607 114.533 153.073C115.025 140.212 117.054 127.479 119.011 114.779C119.006 114.817 119.001 114.853 118.994 114.89C119.754 108.972 120.806 103.102 121.626 97.1918C121.621 97.2295 121.616 97.2672 121.609 97.3049C121.736 96.4379 121.868 95.5743 122.001 94.7073C122.001 94.7107 122.001 94.7124 122.001 94.7158C122.003 94.7004 122.005 94.6867 122.008 94.6696V94.6764C122.008 94.6661 122.01 94.6542 122.013 94.6439C122.013 94.6473 122.013 94.6507 122.011 94.6542C122.071 94.2481 122.131 93.8403 122.188 93.4325C121.72 91.9092 122.402 90.1306 122.503 88.5456C123.085 83.9638 123.88 79.4145 124.426 74.8276C124.417 74.8242 124.409 74.819 124.4 74.8156C124.409 74.819 124.417 74.8242 124.424 74.8276C122.751 74.1131 121.058 73.4465 119.426 72.6412C119.465 72.6583 119.503 72.6755 119.542 72.6926C119.381 72.6206 119.22 72.5504 119.059 72.4801C118.39 73.3077 117.097 73.4414 116.311 74.1696C114.502 75.8488 112.28 77.1425 110.697 79.0393C110.886 82.9649 110.637 86.8819 110.572 90.8057V90.8006C110.572 90.8725 110.569 90.9462 110.567 91.0182C110.567 91.013 110.567 91.0096 110.567 91.0045C110.565 91.061 110.565 91.1175 110.564 91.1741V91.1535C110.672 100.321 109.466 109.429 109.802 118.596C109.791 122.303 110.052 126.002 110.031 129.71C109.819 131.24 111.295 139.275 108.791 138.529C108.659 138.567 108.528 138.606 108.396 138.646C109.067 150.306 108.51 161.988 108.757 173.666C108.738 187.826 107.825 201.962 107.76 216.12C106.998 224.032 107.048 231.961 106.94 239.9C106.514 255.201 106.094 270.509 106.007 285.814C106.007 285.771 106.003 285.73 106.002 285.687C106.05 286.793 106.106 287.896 106.168 289.001C107.733 290.033 109.372 291.039 110.783 292.317C110.779 292.315 110.776 292.312 110.773 292.308C111.053 292.54 111.333 292.773 111.61 293.006C111.61 293.006 111.61 293.006 111.608 293.004C111.625 293.018 111.642 293.033 111.66 293.047C111.656 293.045 111.653 293.042 111.649 293.038C111.675 293.059 111.702 293.081 111.726 293.103C118.749 298.425 114.002 298.919 108.141 297.978C104.52 297.008 101.034 295.661 97.4874 294.464C97.4874 296.08 98.306 298.525 96.7391 299.602C95.5626 299.815 89.1204 299.637 90.7644 297.416C89.1136 287.67 88.1323 277.831 87.3395 267.982C86.1562 260.379 85.8051 252.706 85.3222 245.037C84.1783 234.266 82.822 223.533 82.3597 212.702C81.113 199.124 80.6729 185.482 79.2841 171.92C78.7362 166.077 78.7635 159.965 77.1162 154.338C77.1367 154.362 77.1573 154.384 77.1778 154.408C76.8199 154.062 76.3576 153.844 75.9003 153.663C75.8918 154.115 75.2256 154.125 75.2736 153.649C75.2479 153.639 75.2205 153.628 75.1931 153.616C75.1931 153.616 75.1965 153.616 75.1982 153.618C74.8763 153.472 74.4567 153.471 74.2975 153.841C74.3163 153.813 74.3352 153.784 74.354 153.759C73.5817 155.236 73.2871 156.93 73.1536 158.579C73.157 158.539 73.1604 158.502 73.1638 158.462C72.9481 165.59 72.6518 172.722 72.0371 179.831V179.827C71.2819 193.384 71.2887 206.972 70.1191 220.502C69.852 224.895 70.2938 229.3 69.9239 233.69C69.4958 238.096 69.3074 242.511 69.3194 246.935C69.3759 255.899 68.8947 264.843 68.6327 273.796C68.3382 279.834 67.535 285.854 67.9392 291.907C70.8041 293.508 73.7153 295.065 76.2651 297.15C82.7758 302.723 71.1175 300.663 68.2765 300.204C68.2782 300.204 68.2817 300.204 68.2834 300.204C68.2765 300.204 68.2714 300.2 68.2645 300.2C68.2474 300.197 68.232 300.194 68.2149 300.192C68.2234 300.192 68.2303 300.195 68.2389 300.197C68.1532 300.18 68.0676 300.164 67.982 300.147C67.9991 300.151 68.0145 300.154 68.0316 300.158C67.2456 299.986 66.4493 299.877 65.6616 299.729C65.6616 299.729 65.6633 299.729 65.6651 299.729C65.6616 299.729 65.6599 299.729 65.6565 299.729C65.6531 299.729 65.6479 299.729 65.6445 299.728C65.6445 299.728 65.6479 299.728 65.6514 299.728C65.6188 299.721 65.5863 299.716 65.5537 299.709C65.5555 299.709 65.5589 299.709 65.5606 299.709C65.5332 299.704 65.5075 299.698 65.4801 299.692C65.4801 299.692 65.4664 299.69 65.4613 299.688C65.463 299.688 65.4664 299.688 65.4681 299.688C63.8567 299.332 62.2813 298.837 60.6887 298.403C61.0192 303.511 60.4952 302.79 55.6832 302.987L55.6969 303ZM166.417 293.03C166.417 293.03 166.417 293.038 166.417 293.043C166.417 292.805 166.422 292.567 166.427 292.329C166.42 292.562 166.415 292.797 166.413 293.03H166.417ZM188.853 193.909C188.874 193.638 188.903 193.369 188.922 193.098C188.899 193.369 188.877 193.638 188.853 193.909ZM32.1508 167.237L32.1594 167.304C32.0874 166.641 32.0258 165.979 31.9744 165.325C32.0241 165.962 32.0823 166.599 32.1491 167.235L32.1508 167.237ZM2.16416 165.818C2.17615 165.811 2.18985 165.804 2.20355 165.797C2.21211 165.748 2.22239 165.698 2.23266 165.647C2.21896 165.635 2.20526 165.623 2.19327 165.611C2.183 165.679 2.17444 165.75 2.16588 165.818H2.16416ZM192.91 149.686C193.223 150.5 192.439 151.286 192.169 152.021C191.383 153.815 190.528 155.739 190.626 157.737C191.848 157.033 192.02 155.282 192.862 154.201C193.405 153.341 194.179 152.6 194.939 151.968C197.431 149.855 200.399 148.276 203.332 146.86C204.286 144.907 206.954 145.135 208.639 144.201C209.177 143.877 209.603 143.288 210.237 143.145C210.404 143.007 210.569 142.866 210.742 142.732C208.903 139.275 206.783 135.993 205.335 132.345C202 134.916 198.345 137.063 194.566 138.908C191.543 140.21 189.018 142.391 186.495 144.458C186.528 144.429 186.562 144.401 186.594 144.372C185.076 145.887 182.945 147.688 183 149.991C183.004 149.991 183.007 149.991 183.009 149.991C184.435 148.98 185.487 147.333 187.182 146.67C187.771 146.25 188.367 147.009 187.869 147.499C187.869 147.499 187.869 147.499 187.869 147.501C185.944 148.766 183.79 150.436 183.415 152.861C185.057 152.679 187.036 149.24 188.812 148.411C190.761 147.39 191.025 148.867 189.348 149.823C189.348 149.823 189.348 149.823 189.35 149.823C188.855 150.424 184.077 154.591 186.332 154.615C187.401 154.615 192.189 148.126 192.908 149.686H192.91ZM36.2949 122.959C33.144 126.693 32.3255 131.502 32.0104 136.23C31.5103 142.856 31.8066 149.513 31.7706 156.151C35.3205 150.4 40.4493 145.86 44.4359 140.421C40.4853 135.339 37.7368 129.326 37.2813 122.863C37.0193 123.048 36.7093 122.798 36.4216 122.798C36.3788 122.851 36.336 122.906 36.2932 122.959H36.2949ZM38.9475 66.4813C31.6285 69.9579 27.868 77.6514 24.6931 84.6852C21.948 90.5675 19.638 96.6127 17.5265 102.749C15.8637 108.394 13.1581 113.638 11.1631 119.155C9.7092 123.216 8.82386 127.443 7.83407 131.634C6.87168 136.05 5.33561 140.673 6.89736 145.136C12.7693 135.832 19.0009 120.163 30.7226 117.543C32.8101 111.633 34.7725 105.653 37.6614 100.074C38.4064 98.9652 38.8567 96.2785 40.2061 95.9804C40.3774 95.881 40.5914 95.8347 40.7849 95.8827C41.8244 94.7673 43.0282 95.6754 42.7851 97.0393C42.7834 97.0684 42.7851 97.0993 42.7834 97.1284C42.7834 97.1061 42.7834 97.0856 42.7834 97.0616C42.7834 97.0821 42.7834 97.1027 42.7834 97.125V97.113C42.7731 103.934 40.8312 110.595 40.7524 117.395C46.6466 108.454 53.5975 100.285 61.2264 92.7848C61.223 92.7882 61.2195 92.7916 61.2161 92.7933C64.7609 89.4144 68.3176 85.7201 72.8659 83.7376C74.5252 82.725 78.6111 82.1972 77.9005 85.2352C77.1127 86.9144 75.1126 87.533 73.7581 88.6673C73.7872 88.645 73.8163 88.6227 73.8454 88.6005C73.5902 88.8095 73.3454 89.0254 73.1056 89.2533C73.1056 89.2533 73.1056 89.2533 73.1056 89.2516C73.1022 89.255 73.1005 89.2567 73.0971 89.2601C73.0868 89.2687 73.0782 89.279 73.068 89.2893C75.4294 88.5353 76.0099 90.7389 74.4294 92.1953C76.7223 91.8081 76.373 94.1487 75.2616 95.331C78.0871 96.9605 75.3198 99.7826 73.6536 101.092C72.1638 102.5 71.1843 104.322 69.9855 105.965C65.725 111.515 62.545 117.803 58.1611 123.274C58.1645 123.269 58.168 123.266 58.1714 123.261C58.1508 123.29 58.1286 123.317 58.1046 123.346C58.1046 123.346 58.0978 123.355 58.0943 123.358C56.024 126.071 54.0581 128.87 52.034 131.61C52.296 132.69 51.3267 133.433 50.8764 134.3C49.854 136.021 48.7855 137.714 47.6399 139.353C52.3131 139.439 57.0086 138.558 61.7007 138.617C64.9715 138.742 68.2217 138.474 71.4702 138.144C75.0236 138.147 78.5615 137.894 82.1097 137.779C90.8055 137.657 99.4704 136.367 108.18 136.432C107.774 124.097 107.673 112.351 108.033 100.014C108.033 100.034 108.033 100.055 108.031 100.077C108.069 98.201 108.137 96.3265 108.192 94.4502C108.192 94.4897 108.192 94.5291 108.192 94.5685C108.267 90.6326 108.252 86.6899 108.504 82.7592C108.653 81.0423 107.839 79.0547 108.954 77.5606C109.718 76.3903 110.844 75.6363 111.992 74.8756C113.348 74.0205 114.465 72.6515 115.98 72.1117C116.168 71.8479 116.49 71.6902 116.79 71.584C112.814 69.9802 108.808 68.4809 104.704 67.2592C102.501 66.3202 100.272 65.4617 97.9549 64.8483C96.7631 67.4562 95.1996 69.8791 93.9872 72.4767C93.3587 73.9126 92.3432 76.2018 90.5332 74.6922C89.4732 73.8458 86.0089 71.0956 87.098 69.6717C86.4507 69.1286 86.9114 67.6978 87.7316 68.4826C87.8001 68.4997 87.8686 68.5066 87.9388 68.5134H87.932C88.4046 68.4278 88.7899 68.8613 88.4252 69.2622C89.5143 70.5199 90.7661 71.6045 92.0333 72.6772C92.4991 71.5823 92.9546 70.4754 93.5728 69.4524C94.5489 67.7475 95.8007 66.2002 96.585 64.3874C95.1876 63.7671 93.4649 63.5238 92.4254 62.3192C92.2902 62.6945 91.8792 62.9943 91.4733 62.8967C88.9149 64.8123 86.2195 66.5224 83.5926 68.3387C82.3922 69.3239 81.161 70.2749 79.9623 71.2618C78.9622 71.9918 78.1368 73.4054 76.8679 73.563C76.0031 74.036 74.4225 72.1391 73.4533 71.7845C69.7492 69.6392 66.5452 66.8137 63.5399 63.7894C63.5399 63.7894 63.5313 63.7825 63.5279 63.7791C63.5296 63.7808 63.5331 63.7843 63.5365 63.786C63.5331 63.7825 63.5296 63.7791 63.5262 63.7774C63.5262 63.7774 63.5262 63.7774 63.5279 63.7791C62.3566 62.6756 61.1562 61.5687 60.2948 60.1962C59.1441 60.4139 58.0224 60.8714 56.8785 61.1592C57.108 64.2212 56.8323 67.2832 56.9196 70.3366C57.435 69.461 62.8173 62.5317 62.5981 66.2756C61.074 67.8075 59.9061 69.6375 58.7502 71.4606C58.0755 72.1203 57.1593 75.232 56.0702 73.5528C54.7191 73.1278 55.4948 68.9589 55.3767 67.6893C55.3493 65.7102 54.8818 63.774 54.7619 61.8035C49.9654 63.3182 45.0798 64.5228 40.2781 66.022C40.0434 66.3356 39.6136 66.5104 39.2386 66.3716C39.141 66.4076 39.0434 66.4436 38.9458 66.4778L38.9475 66.4813ZM75.9363 140.921C75.9243 140.925 75.861 140.928 75.8473 140.93C76.1144 140.911 76.3832 140.894 76.6521 140.878C76.4124 140.892 76.1743 140.906 75.9363 140.921ZM41.0178 121.042C40.4818 121.736 39.9955 122.474 39.4013 123.12C41.0178 128.565 43.5711 133.62 45.5729 138.917C47.1706 136.824 48.4105 134.496 49.8215 132.284C47.1484 128.305 43.6841 124.883 41.2713 120.735C41.1857 120.836 41.1017 120.939 41.0195 121.042H41.0178ZM205.974 130.796H205.988L206.147 130.658C206.089 130.704 206.031 130.75 205.974 130.796ZM55.0308 102.012C50.4603 107.051 46.4583 112.55 42.285 117.909C45.275 121.869 48.3694 125.898 51.236 130.003C53.3577 126.794 55.4931 123.596 57.697 120.442C60.3051 116.244 62.8892 112.046 66.0949 108.261C68.4067 105.547 70.2321 102.416 72.7529 99.894C73.5115 98.9841 75.551 98.273 75.0612 96.8525C74.741 96.4088 74.1108 96.5475 73.6981 96.258C72.7888 95.1716 74.8609 94.5668 74.9996 93.5216C74.9945 93.5164 74.9876 93.513 74.9825 93.5078C74.1708 93.3982 72.3676 94.1778 72.3367 92.8893C72.6039 91.9297 73.7427 91.4637 74.1468 90.5538C72.931 90.3671 69.5848 92.5723 70.8572 89.6988C70.8486 89.7228 70.8383 89.7451 70.8281 89.7673C71.984 87.3051 74.9568 86.582 76.7035 84.7589C72.4155 84.1711 66.9734 90.218 63.8105 92.8653C63.8139 92.8619 63.8156 92.8584 63.819 92.8567C61.9182 94.7021 60.1476 96.6761 58.2861 98.5592C58.3032 98.542 58.3187 98.5266 58.3341 98.5095C58.1628 98.6808 57.9916 98.8522 57.8203 99.0218C57.8203 99.0218 57.8221 99.0218 57.8238 99.0201C57.8238 99.0201 57.8221 99.0218 57.8203 99.0235C57.8238 99.0201 57.8255 99.0184 57.8289 99.0149C56.8631 99.983 55.9435 100.994 55.0308 102.01V102.012ZM202.402 85.6002C202.078 92.5329 202.849 99.4913 203.388 106.417C204.065 114.081 204.253 121.784 205.195 129.422C213.155 123.195 221.378 117.212 228.383 109.882C228.359 109.907 228.337 109.935 228.313 109.961C228.411 109.851 228.508 109.74 228.608 109.63C228.606 109.632 228.604 109.633 228.601 109.637C230.445 107.481 233.211 104.113 230.197 101.71C227.532 99.7397 224.594 98.1753 221.802 96.395C215.43 92.5415 209.558 87.7643 202.481 85.2044C202.453 85.3363 202.428 85.4699 202.4 85.6019L202.402 85.6002ZM147.833 68.3215C147.28 87.1749 144.301 105.833 142.117 124.544C149.546 124.361 156.909 123.206 164.348 123.439C172.446 123.416 180.575 122.604 188.67 123.297C186.283 113.97 184.552 104.489 182.64 95.0585C180.993 84.9336 179.911 74.7196 179.115 64.4953C178.183 65.311 174.667 70.5919 173.753 69.8808C172.313 68.1056 170.996 66.0974 169.759 64.1544C169.369 60.993 173.874 67.6893 174.222 68.2547C175.811 66.327 177.493 64.4714 178.964 62.4495C178.859 60.9844 178.772 59.516 178.77 58.0476C178.073 58.0561 177.654 57.3022 177.844 56.6733C177.77 56.5448 177.733 56.3923 177.726 56.2398C172.547 60.0729 166.994 63.4227 162.139 67.6755C162.148 67.6687 162.156 67.6618 162.165 67.6533C162.154 67.6618 162.144 67.6704 162.134 67.679C162.122 67.6893 162.108 67.7013 162.096 67.7115C162.096 67.7115 162.096 67.7115 162.095 67.7132C162.091 67.7167 162.086 67.7201 162.083 67.7235C162.086 67.7218 162.089 67.7184 162.091 67.715C162.091 67.715 162.088 67.7184 162.086 67.7184C161.379 68.2084 160.817 69.1834 159.892 69.204C157.952 68.3352 156.565 66.5618 155.185 64.9991C155.19 65.006 155.195 65.0111 155.202 65.0162C152.899 62.4409 150.678 59.809 148.178 57.4256C147.987 58.7518 147.917 60.09 147.866 61.4282C148.434 62.8144 148.669 64.3069 148.83 65.789C149.804 64.8637 150.568 63.7397 151.51 62.7887C151.738 62.5917 152.096 62.6465 152.272 62.8795C152.762 63.8237 151.407 64.5485 150.957 65.2578C150.957 65.2578 150.957 65.2578 150.959 65.2561C150.912 65.3075 150.866 65.3606 150.82 65.4138C150.828 65.4035 150.837 65.3932 150.847 65.3812C150.173 65.9398 148.76 68.325 147.862 67.1701C147.854 67.5539 147.844 67.9377 147.83 68.3215H147.833ZM37.2248 121.849C37.2915 121.881 37.3515 121.919 37.4063 121.967C37.444 121.818 37.4868 121.669 37.533 121.521C37.4303 121.629 37.3275 121.739 37.2265 121.849H37.2248ZM38.6204 102.354C35.9336 107.157 34.4729 112.551 32.5515 117.688C32.6063 117.704 32.6611 117.719 32.7159 117.738C34.5345 117.258 36.6716 116.789 38.48 117.474C38.5485 115.337 39.2044 113.266 39.2694 111.136C39.1324 107.659 39.5434 104.2 39.5571 100.73C39.2472 101.272 38.9355 101.815 38.6221 102.354H38.6204ZM121.244 108.761L121.241 108.802C121.282 108.542 121.323 108.28 121.366 108.016C121.325 108.264 121.284 108.513 121.244 108.761ZM22.7238 71.9284C24.8164 72.4321 20.1859 77.7662 20.5678 80.1034C22.496 78.981 23.2238 76.4862 24.3712 74.6631C24.8626 73.9246 25.1418 71.8478 26.3781 72.4784C27.1573 73.3249 25.974 74.4558 25.7051 75.3228C25.301 76.2035 24.9979 77.1253 24.7325 78.0575C27.582 72.1803 32.7861 67.583 38.4612 64.4988C38.4509 64.4302 38.4406 64.3617 38.4303 64.2932C37.4953 61.6835 38.1306 58.7038 38.0365 55.9657C37.4234 56.1987 36.8138 56.4386 36.2042 56.6768L36.3394 56.6237C27.3953 60.1174 18.6379 67.9668 18.1601 78.0883C20.0661 76.9986 20.6414 72.3807 22.7255 71.9284H22.7238ZM62.1545 56.6494C62.1734 57.7631 62.2025 58.8786 62.3172 59.9889C63.9937 61.1438 65.4065 62.5797 66.7336 64.1064C70.1088 66.8599 73.1399 70.0915 77.0888 72.05C81.3134 68.0662 85.7212 64.1664 90.9647 61.5704C91.1617 59.2384 91.3123 56.903 91.4219 54.5658C91.5846 53.2755 91.3089 51.7643 91.9956 50.6162C92.5025 50.0748 93.2971 50.4723 93.8999 50.6162C95.5524 50.8647 97.484 51.2896 98.9533 50.2598C100.813 48.1248 100.864 40.6832 101.145 37.635V37.6521C101.104 33.2742 101.484 28.874 101.025 24.5115C99.3163 25.6955 93.8348 24.0351 91.7028 23.6342C89.4252 23.0927 89.5725 20.8995 92.0145 20.9372C93.2132 20.7795 101.585 20.9817 100.876 22.7637C100.919 22.8152 100.959 22.8683 100.998 22.9248C100.971 21.5438 100.933 20.1644 100.859 18.7851C100.733 18.5178 100.686 18.2213 100.643 17.93C98.5954 16.2817 95.6894 16.6998 93.2371 16.172C93.2577 16.172 93.2782 16.1755 93.2988 16.1772C88.7094 15.8105 84.1355 15.9407 79.5598 16.4085C77.8525 16.6381 76.1281 16.7923 74.4259 17.0562C72.621 17.4468 70.8469 18.2111 69.0488 18.4938C66.6668 22.14 67.5813 30.8051 67.1994 35.3201V35.2944C66.9511 36.7851 67.7491 40.5701 66.5401 41.3498C65.725 41.7987 64.0947 42.9382 63.6598 41.516C62.5313 39.967 64.7095 29.7204 61.1134 32.8578C59.6218 34.2748 59.5687 36.7405 60.5397 38.4609C61.3257 39.3621 62.4679 39.9567 63.0501 41.0156C63.2231 43.053 62.3703 45.1091 62.3909 47.1807C62.086 50.3267 62.2453 53.4914 62.158 56.6476C62.158 56.6391 62.158 56.6322 62.158 56.6237C62.158 56.6322 62.158 56.6425 62.158 56.6511L62.1545 56.6494ZM185.079 49.5967C184.158 51.6666 183.223 53.7313 182.414 55.8509C188.261 56.3718 193.925 57.8625 199.248 60.3162C201.601 61.5276 204.548 62.3724 206.074 64.6684C207.635 66.4436 208.778 68.7585 210.683 70.2201C210.601 68.4603 209.803 66.824 209.173 65.2064C208.848 64.6958 209.091 63.6917 209.836 63.9487C211.504 65.0231 214.124 69.6683 215.982 69.3256C215.53 67.7355 214.711 66.2842 213.822 64.9014C213.566 64.3925 212.92 64.0002 212.964 63.3902C213.009 63.068 213.327 62.7459 213.672 62.8521C214.997 63.8271 216.114 65.1345 217.276 66.3099C218.105 67.0621 218.806 68.8647 220.128 68.5374C220.576 67.7612 220.205 66.8 219.996 65.9963C220.006 66.0323 220.018 66.07 220.03 66.1077C218.434 60.2477 212.358 57.5249 207.418 54.9102C200.488 51.4781 192.842 50.3369 185.288 49.0895C185.221 49.2609 185.146 49.4288 185.077 49.5967H185.079ZM140.984 27.2599C140.425 34.4633 139.384 40.6233 147.958 42.8285C148.88 43.3288 151.01 43.3494 150.578 44.8538C150.664 46.581 150.573 48.3236 150.332 50.0388C150.169 52.1189 150.804 54.6669 149.409 56.3855C153.236 59.8621 156.19 64.1698 160.077 67.5762C160.127 67.535 160.175 67.4939 160.225 67.4511C160.221 67.4528 160.218 67.4562 160.216 67.4597C160.228 67.4494 160.24 67.4391 160.252 67.4288C160.543 67.1752 160.827 66.9148 161.12 66.6612C161.094 66.6852 161.067 66.7074 161.04 66.7314C161.118 66.6629 161.196 66.5944 161.274 66.5275C161.271 66.5292 161.269 66.5327 161.266 66.5344C161.298 66.5052 161.333 66.4761 161.367 66.447C161.363 66.4504 161.36 66.4538 161.356 66.4556C164.735 63.4364 168.561 60.9947 172.299 58.4554C173.878 57.2456 175.53 56.1387 177.114 54.9376C177.304 54.7885 177.544 54.7663 177.745 54.8536C177.662 49.6858 178.104 44.458 177.263 39.3399C177.263 39.3484 177.263 39.3553 177.265 39.3639C177.26 39.3262 177.257 39.2868 177.251 39.2491C177.251 39.2559 177.251 39.261 177.253 39.2679C177.253 39.2628 177.253 39.2593 177.253 39.2559V39.2611C177.253 39.2611 177.251 39.2508 177.253 39.2439C177.251 39.2182 177.246 39.1908 177.245 39.1617C177.245 39.172 177.246 39.1822 177.248 39.1942C177.224 36.9359 176.828 34.2406 178.096 32.2615C179.164 31.4168 180.591 31.033 181.248 29.717C181.889 28.264 180.502 26.6328 179.109 26.2884C178.846 26.4049 178.525 26.3586 178.308 26.1667C178.197 26.1496 178.085 26.1273 177.974 26.1067C177.604 26.422 177.044 26.2901 176.822 25.8754C176.292 25.7863 175.792 25.3408 175.982 24.7668C175.938 23.5639 175.876 22.3577 175.9 21.1531C175.69 15.0326 176.926 8.99772 168.994 8.25578C163.036 7.94222 157.057 8.16668 151.09 8.21638C142.699 8.76297 142.835 8.26093 142.074 16.6981C144.398 15.8242 147.094 15.2553 149.416 16.4273C149.416 16.4273 149.414 16.4273 149.412 16.4273C149.416 16.4273 149.419 16.4308 149.422 16.4325C149.422 16.4325 149.424 16.4325 149.426 16.4325C150.161 16.7854 151.534 17.4314 151.143 18.4355C150.755 19.2117 149.875 18.6411 149.301 18.427C146.965 17.3063 144.323 17.6627 141.912 18.331C141.836 19.0455 141.749 19.76 141.672 20.4746C142.925 19.856 144.357 19.6589 145.693 20.1233C146.213 20.2415 146.011 21.0948 145.503 21.0177C144.289 20.6836 143.032 20.7504 141.859 21.2233C141.859 21.2233 141.859 21.2233 141.86 21.2233C141.768 21.261 141.675 21.3022 141.586 21.345C141.557 21.6329 141.53 21.919 141.504 22.2052C141.567 22.2291 141.626 22.2668 141.677 22.3131C143.222 21.1959 145.321 21.3895 146.701 22.6815C147.294 23.2332 148.051 23.8895 147.88 24.7856C147.073 27.3747 143.155 27.9796 141.059 26.6379C141.035 26.847 141.013 27.0543 140.989 27.2633L140.984 27.2599ZM179.378 49.6121C179.385 51.67 179.414 53.7262 179.308 55.7806C179.837 55.7704 180.368 55.7429 180.897 55.7498C181.967 53.4949 182.872 51.1611 183.788 48.8376C182.32 48.5601 180.769 48.4727 179.392 47.8593C179.387 48.4435 179.38 49.0261 179.378 49.6104V49.6121ZM142.646 54.5829C144.443 54.6617 146.242 54.8022 148.041 54.7663C148.316 52.9089 148.414 51.036 148.554 49.1649C141.264 50.0525 134.106 50.4534 126.9 52.2937C131.406 53.1076 135.887 54.1237 140.473 54.4201C140.429 54.4167 140.382 54.4116 140.338 54.4081C140.406 54.415 140.475 54.4201 140.543 54.4253C140.499 54.4218 140.453 54.4167 140.408 54.4133C140.531 54.4236 140.656 54.4356 140.78 54.4458C140.776 54.4458 140.771 54.4458 140.768 54.4458C141.393 54.4955 142.02 54.5452 142.646 54.5829ZM141.511 23.6548C140.768 24.7445 141.761 25.6544 142.866 25.7966C142.638 25.4282 142.643 24.9381 142.871 24.5783C143.276 22.2531 146.503 23.701 144.886 25.6287C145.407 25.4573 145.914 25.2037 146.268 24.7736C145.146 23.4731 143.343 22.4725 141.72 23.5211C141.723 23.5211 141.725 23.5177 141.728 23.516C141.653 23.5588 141.583 23.6068 141.513 23.6548H141.511ZM177.097 14.2855C177.101 14.2992 177.106 14.3489 177.108 14.3643C177.056 13.9102 177.001 13.4305 176.926 12.9438C176.995 13.3911 177.048 13.84 177.097 14.2855Z" fill="#101010"/>
<path d="M141.295 30.9333C140.639 30.69 141.609 30.0234 141.785 29.6996C142.086 29.434 142.554 28.5001 142.992 28.9765C143.076 29.1256 143.035 29.3569 142.886 29.4545C142.283 29.8486 141.941 30.6351 141.295 30.935V30.9333Z" fill="#101010"/>
<path d="M143.202 31.3223C142.803 30.726 144.072 29.4821 144.397 28.9149C144.784 28.5482 145.197 29.1925 144.846 29.5026C144.354 29.7922 143.621 31.6222 143.202 31.3223Z" fill="#101010"/>
<path d="M145.291 30.9967C144.89 30.6866 145.28 30.2736 145.494 29.9892C145.775 29.6825 145.964 28.8223 146.503 29.0811C146.989 29.614 146.106 30.2839 145.876 30.7757C145.796 31.0019 145.501 31.1475 145.291 30.9967Z" fill="#101010"/>
<path d="M160.902 30.1004C160.281 29.6309 161.233 29.086 161.498 28.6902C161.714 28.4503 161.926 28.1864 162.202 28.0117C162.608 27.7821 162.918 28.3818 162.639 28.6782C162.085 29.0963 161.618 30.1021 160.904 30.1004H160.902Z" fill="#101010"/>
<path d="M163.253 30.6282C162.871 30.0627 164.273 29.2094 164.583 28.7262C164.83 28.5411 165.15 27.938 165.481 28.2687C165.58 28.3989 165.563 28.6183 165.438 28.7279C164.786 29.086 163.82 30.6727 163.253 30.6282Z" fill="#101010"/>
<path d="M166.072 30.26C165.411 29.7939 167.692 27.8663 168.143 27.6504C169.485 28.1062 167.052 29.5198 166.739 30.1041C166.593 30.3217 166.29 30.4725 166.072 30.26Z" fill="#101010"/>
<path d="M125.595 72.2418C125.366 72.0739 125.145 71.894 124.927 71.7089C124.938 71.7175 124.948 71.7261 124.958 71.7346C124.612 71.4296 124.212 71.2035 123.866 70.8985C123.52 70.5746 123.795 69.8738 124.282 69.9218C124.98 70.3621 125.301 71.3765 125.868 72.0139C125.868 72.0122 125.864 72.0088 125.862 72.0071C125.866 72.0122 125.869 72.0156 125.873 72.0208C125.873 72.0191 125.871 72.0174 125.869 72.0156C126.15 72.199 125.734 72.6085 125.595 72.2418Z" fill="white"/>
<path d="M131.286 69.9764C130.654 69.0751 133.022 67.7523 133.745 67.7095C134.901 68.4463 133.305 69.1197 132.692 69.4675C132.264 69.7091 131.787 70.5418 131.286 69.9764Z" fill="white"/>
<path d="M143.521 83.1567C142.225 78.652 141.516 73.9554 139.353 69.7368C139.356 69.7454 139.361 69.754 139.365 69.7608C139.353 69.7368 139.343 69.7128 139.332 69.6888C139.334 69.694 139.337 69.7008 139.339 69.706C134.885 60.5852 133.637 62.4083 141.738 61.1198C137.56 59.528 132.964 59.2161 139.796 56.1199C140.587 55.7669 142.855 53.9266 143.112 55.5647C143.255 55.9399 142.769 56.3992 142.456 56.0599C141.087 56.6922 139.935 57.7151 138.604 58.4262C140.711 59.2093 142.85 59.9083 145.026 60.4155C147.079 62.5899 138.36 62.787 137.209 63.0183C138.084 65.2835 139.555 67.2437 140.464 69.4935C141.942 72.7131 142.826 76.1572 143.514 79.6201C143.511 79.5979 143.505 79.5756 143.502 79.5533C143.519 79.6561 143.538 79.7606 143.555 79.8652C143.552 79.8497 143.55 79.8326 143.547 79.8172C143.714 80.8316 143.982 81.8236 144.245 82.814C144.389 83.2527 143.718 83.6502 143.521 83.1533V83.1567Z" fill="white"/>
<path d="M186.068 96.0041C185.98 94.9503 186.057 93.8948 186.15 92.8445C186.148 92.865 186.146 92.8839 186.145 92.9045C186.751 87.4471 187.359 81.9657 188.383 76.5665C188.376 76.5991 188.367 76.6316 188.361 76.6642C188.907 74.0546 189.482 71.4021 189.638 68.7428C188.695 68.018 181.848 67.079 183.502 65.3553C185.401 64.6579 187.039 63.3882 188.768 62.3515C186.857 61.6764 185.217 60.5044 183.706 59.1782C183.711 59.1816 183.716 59.1868 183.722 59.1902C183.703 59.1748 183.686 59.1594 183.667 59.1439C183.237 58.7704 181.619 57.5435 182.778 57.23C184.497 58.2204 185.989 59.6186 187.818 60.4325C193.662 62.2864 187.335 64.2826 185.1 65.8299C192.059 67.8655 191.15 67.1013 190.083 74.1077C188.808 80.0911 188.143 86.1808 187.261 92.2294C187.263 92.2002 187.266 92.1711 187.268 92.142C187.155 93.3859 187.037 94.6282 186.997 95.8756C187.025 96.4633 186.133 96.6553 186.068 96.0024V96.0041Z" fill="white"/>
<path d="M201.942 82.2961C201.431 82.1693 201.758 81.5148 201.772 81.1584C202.032 79.4621 201.825 77.716 202.128 76.0283C202.253 75.4645 203.08 75.6102 202.969 76.1928C202.834 77.0358 202.769 77.8925 202.693 78.7441C202.693 78.7235 202.697 78.703 202.698 78.6824C202.661 79.1468 202.623 79.6111 202.582 80.0738C202.582 80.0703 202.582 80.0669 202.582 80.0618C202.582 80.0703 202.582 80.0772 202.58 80.0858C202.58 80.0789 202.58 80.0738 202.582 80.0669C202.409 80.6392 202.644 82.1899 201.942 82.2961Z" fill="white"/>
<path d="M206.85 81.0662C206.192 80.6379 210.496 76.9316 209.557 78.9038C208.864 79.3613 208.215 79.8891 207.651 80.5008C207.41 80.6824 207.213 81.3181 206.848 81.0662H206.85Z" fill="white"/>
<path d="M128.328 63.0542C128.802 61.5189 130.601 60.6604 131.676 59.5193C132.404 59.1166 135.604 55.6211 136.087 56.7126C136.154 56.9765 135.962 57.1958 135.722 57.2712C133.739 58.3661 132.027 59.9082 130.277 61.3355C130.279 61.3338 130.282 61.3321 130.284 61.3304C129.76 61.8119 129.162 62.2471 128.77 62.8468C128.775 62.8366 128.78 62.8263 128.785 62.8177C128.768 62.8503 128.753 62.8845 128.739 62.9188C128.743 62.9085 128.746 62.8965 128.749 62.8862C128.765 63.1535 128.426 63.4157 128.328 63.0542Z" fill="white"/>
<path d="M127.091 57.5433C126.989 56.8562 128.338 56.7963 128.807 56.5324C130.374 56.0218 131.864 55.3038 133.433 54.7967C133.616 54.7247 133.818 54.8481 133.856 55.0383C133.964 55.6534 133.164 55.5968 132.775 55.7648C132.777 55.7648 132.78 55.7648 132.782 55.7631C132.767 55.7682 132.753 55.7716 132.737 55.7768C132.744 55.775 132.751 55.7733 132.758 55.7716C131.272 56.236 129.821 56.81 128.318 57.2246C127.922 57.2298 127.388 57.8261 127.088 57.5451L127.091 57.5433Z" fill="white"/>
<path d="M235.084 105.507C233.187 104.513 237.252 102.74 238.18 103.033C238.756 103.196 238.583 104.176 238.006 104.189C237.192 104.316 236.37 104.594 235.679 105.05C235.603 105.312 235.367 105.555 235.084 105.509V105.507Z" fill="white"/>
<path d="M236.634 110.608C236.125 109.912 233.783 108.68 234.128 107.846C234.567 107.344 235.685 108.975 236.238 109.179C236.598 109.542 237.564 109.923 237.168 110.543C237.038 110.711 236.795 110.761 236.634 110.608Z" fill="white"/>
<path d="M191.268 136C190.788 135.417 191.018 134.487 190.838 133.774C190.65 132.096 190.275 130.45 189.987 128.789C189.989 128.8 189.99 128.81 189.992 128.822C190.002 128.121 189.143 125.882 190.232 125.853C190.451 126.007 190.65 126.373 190.448 126.618C190.395 127.756 193.508 136.922 191.266 136.001L191.268 136Z" fill="white"/>
<path d="M134.616 157.125C133.875 157.134 133.887 155.986 134.538 155.825C135.161 152.673 135.803 149.522 136.466 146.378C136.459 146.407 136.454 146.436 136.447 146.464C137.418 141.649 138.934 136.97 140.189 132.228C140.185 132.242 140.184 132.256 140.18 132.269C140.221 132.078 140.262 131.886 140.305 131.694C140.305 131.697 140.303 131.702 140.302 131.706C140.497 131.25 140.915 126.596 141.677 128.287C140.879 135.107 138.303 141.572 137.088 148.325C137.091 148.313 137.093 148.302 137.096 148.29C136.748 150.132 136.428 151.98 135.937 153.791C135.565 154.841 135.962 156.793 134.615 157.125H134.616Z" fill="white"/>
<path d="M18.9512 170.095C18.4015 169.934 18.7029 169.214 18.6738 168.799C18.6498 164.526 18.6224 160.256 19.1002 156.001C19.1002 156.017 19.0985 156.032 19.0968 156.048C19.4376 150.391 21.1346 144.992 22.8231 139.624C24.0937 136.091 25.3232 132.515 27.1025 129.198C27.9827 127.488 29.3612 126.098 30.2688 124.405C30.2653 124.414 30.2602 124.42 30.2568 124.429C30.2688 124.405 30.2808 124.383 30.2927 124.359C30.2859 124.371 30.2808 124.381 30.2756 124.393C30.4982 123.694 31.4846 124.083 31.1661 124.753C30.1917 126.627 28.6488 128.14 27.7292 130.047C23.8163 138.476 20.6774 147.523 19.9718 156.843L19.9787 156.766C19.9787 156.781 19.977 156.796 19.9753 156.81C19.9753 156.807 19.9753 156.803 19.9753 156.798C19.3605 161.142 19.9016 165.628 19.3571 169.922C19.3571 169.922 19.3588 169.922 19.3605 169.922C19.2595 170.043 19.1088 170.127 18.9512 170.096V170.095Z" fill="white"/>
<path d="M16.26 139.867C15.7908 139.375 16.611 138.769 16.8131 138.311C17.844 136.809 18.7533 135.229 19.6284 133.63C19.94 133.195 21.3254 130.19 21.846 131.173C21.8528 131.363 21.6747 131.399 21.5566 131.492C21.5651 131.483 21.5737 131.476 21.5823 131.47C21.4007 131.641 21.2586 131.848 21.1182 132.052C21.125 132.042 21.1319 132.032 21.1387 132.021C19.6352 134.564 18.3851 137.249 16.76 139.723C16.6556 139.896 16.4312 139.989 16.2566 139.866L16.26 139.867Z" fill="white"/>
<path d="M32.0011 178.019C32.2922 177.557 31.7596 156.879 32.8179 161.702C32.8162 161.695 32.8128 161.687 32.8111 161.68C32.8402 161.911 33.2306 162.425 32.8111 162.47C32.835 162.787 32.8607 163.105 32.8727 163.422C32.8727 163.405 32.8727 163.39 32.871 163.373C32.9481 166.5 32.8419 169.63 32.9943 172.759C32.9224 174.592 33.1998 176.544 32.8111 178.324C32.5422 178.703 31.972 178.475 32.0011 178.019Z" fill="white"/>
<path d="M60.8882 151.498C60.2324 151.476 59.5954 151.325 58.9583 151.188C58.2185 151.252 58.3984 150.112 59.6844 150.553C60.4327 150.89 63.2343 150.212 63.2257 151.058C63.0596 151.941 61.5527 151.384 60.89 151.498H60.8882Z" fill="white"/>
<path d="M89.094 170.742C89.7293 169.45 91.2825 168.81 92.4213 168.006C92.6302 167.884 92.8836 167.992 92.9692 168.212C93.1628 168.738 92.5463 168.948 92.2055 169.186C92.2141 169.181 92.2209 169.176 92.2295 169.171C92.2123 169.183 92.1952 169.193 92.1764 169.205C92.1815 169.202 92.1867 169.198 92.1935 169.195C92.1062 169.253 92.0171 169.31 91.9298 169.366C91.9418 169.36 91.9538 169.351 91.9657 169.344C91.2551 169.829 90.4948 170.264 89.8783 170.869C89.7824 171.405 88.9895 171.294 89.0957 170.742H89.094Z" fill="white"/>
<path d="M129.155 130.536C125.856 130.082 122.564 130.008 119.246 130.297C119.258 130.297 119.271 130.294 119.283 130.292C118.864 130.349 118.92 129.65 119.309 129.703C119.305 129.703 119.3 129.703 119.297 129.701C121.506 129.663 123.717 129.232 125.926 129.465C127.041 129.574 128.155 129.657 129.268 129.785C129.707 129.85 129.578 130.578 129.155 130.537V130.536Z" fill="white"/>
<path d="M196.607 125.467C196.26 125.213 196.431 124.569 196.869 124.545C197.852 124.213 198.697 123.478 199.693 123.137C200.281 122.948 200.43 123.887 199.914 124.06C198.772 124.336 197.768 125.565 196.607 125.467Z" fill="white"/>
<path d="M83.7239 13.331C83.1023 12.8855 83.8934 12.1899 84.2102 11.8026C84.2308 11.7786 84.253 11.7546 84.2753 11.7307C84.2616 11.7461 84.2479 11.7615 84.2342 11.7769C84.7137 11.4308 85.4517 10.084 86.0785 10.5963C86.2275 10.7917 86.1932 11.1035 86.0151 11.2697C85.4055 11.842 84.7548 12.3715 84.1965 12.9952C84.1862 13.2265 83.9465 13.4304 83.7239 13.331Z" fill="white"/>
<path d="M86.164 14.9071C85.116 14.4479 87.9056 11.9583 88.2087 11.2437C88.3337 11.081 88.5734 11.0313 88.7292 11.1803C89.1265 11.8914 87.9604 12.51 87.6607 13.108C87.2856 13.5843 86.8661 14.0298 86.5373 14.5405C86.5287 14.7375 86.3678 14.9208 86.164 14.9054V14.9071Z" fill="white"/>
<path d="M89.3318 14.4687C88.1159 13.7645 91.6401 11.9002 92.1248 11.2234C92.3611 11.0263 92.7156 11.1103 92.8611 11.3707C93.344 12.3406 90.4277 13.7782 89.7547 14.4396C89.7701 14.431 89.7838 14.4207 89.7993 14.4104C89.6571 14.5064 89.491 14.5441 89.3335 14.4687H89.3318Z" fill="white"/>
<path d="M158.065 6.90537C156.012 6.15144 157.093 4.35401 157.786 5.43692C158.17 5.77105 159.023 5.92183 158.73 6.60208C158.625 6.84882 158.322 7.03902 158.067 6.90537H158.065Z" fill="white"/>
<path d="M161.954 5.64918C161.651 5.40073 161.397 5.0409 161.433 4.63309C161.433 4.64166 161.433 4.64851 161.431 4.65708C161.389 3.90829 162.531 3.62214 162.652 4.44804C163.423 4.88497 162.704 6.25061 161.954 5.64918Z" fill="white"/>
</g>
<defs>
<clipPath id="clip0_20624_269">
<rect width="252" height="303" fill="white"/>
</clipPath>
</defs>
</svg>
