<svg width="180" height="31" viewBox="0 0 180 31" fill="none" xmlns="http://www.w3.org/2000/svg">
<path d="M10.48 24.756C8.96533 24.756 7.664 24.436 6.576 23.796C5.488 23.156 4.656 22.1853 4.08 20.884C3.504 19.5613 3.216 17.8973 3.216 15.892C3.216 13.8653 3.51467 12.2013 4.112 10.9C4.73067 9.59867 5.584 8.628 6.672 7.988C7.76 7.348 9.02933 7.028 10.48 7.028C12.1013 7.028 13.552 7.39067 14.832 8.116C16.1333 8.84133 17.1573 9.86533 17.904 11.188C18.672 12.5107 19.056 14.0787 19.056 15.892C19.056 17.684 18.672 19.2413 17.904 20.564C17.1573 21.8867 16.1333 22.9213 14.832 23.668C13.552 24.3933 12.1013 24.756 10.48 24.756ZM0.304 24.5V0.755999H5.296V10.772L4.976 15.86L5.072 20.98V24.5H0.304ZM9.616 20.66C10.448 20.66 11.184 20.468 11.824 20.084C12.4853 19.7 13.008 19.156 13.392 18.452C13.7973 17.7267 14 16.8733 14 15.892C14 14.8893 13.7973 14.036 13.392 13.332C13.008 12.628 12.4853 12.084 11.824 11.7C11.184 11.316 10.448 11.124 9.616 11.124C8.784 11.124 8.03733 11.316 7.376 11.7C6.71467 12.084 6.192 12.628 5.808 13.332C5.424 14.036 5.232 14.8893 5.232 15.892C5.232 16.8733 5.424 17.7267 5.808 18.452C6.192 19.156 6.71467 19.7 7.376 20.084C8.03733 20.468 8.784 20.66 9.616 20.66ZM29.6618 24.756C28.2324 24.756 26.9524 24.4787 25.8218 23.924C24.7124 23.3693 23.8484 22.5267 23.2298 21.396C22.6111 20.244 22.3018 18.7827 22.3018 17.012V7.284H27.2938V16.276C27.2938 17.7053 27.5924 18.7613 28.1898 19.444C28.8084 20.1053 29.6724 20.436 30.7818 20.436C31.5498 20.436 32.2324 20.276 32.8298 19.956C33.4271 19.6147 33.8964 19.1027 34.2378 18.42C34.5791 17.716 34.7498 16.8413 34.7498 15.796V7.284H39.7418V24.5H35.0058V19.764L35.8698 21.14C35.2938 22.3347 34.4404 23.2413 33.3098 23.86C32.2004 24.4573 30.9844 24.756 29.6618 24.756ZM46.5425 30.964C45.6465 30.964 44.7612 30.8253 43.8865 30.548C43.0118 30.2707 42.2972 29.8867 41.7425 29.396L43.5665 25.844C43.9505 26.1853 44.3878 26.452 44.8785 26.644C45.3905 26.836 45.8918 26.932 46.3825 26.932C47.0865 26.932 47.6412 26.7613 48.0465 26.42C48.4732 26.1 48.8572 25.556 49.1985 24.788L50.0945 22.676L50.4785 22.132L56.6545 7.284H61.4545L53.6785 25.556C53.1238 26.9427 52.4838 28.0307 51.7585 28.82C51.0545 29.6093 50.2652 30.164 49.3905 30.484C48.5372 30.804 47.5878 30.964 46.5425 30.964ZM49.4865 25.172L41.8065 7.284H46.9585L52.9105 21.684L49.4865 25.172ZM85.5395 7.028C86.9048 7.028 88.1102 7.30533 89.1555 7.86C90.2222 8.39333 91.0542 9.22533 91.6515 10.356C92.2702 11.4653 92.5795 12.8947 92.5795 14.644V24.5H87.5875V15.412C87.5875 14.0253 87.2995 13.0013 86.7235 12.34C86.1475 11.6787 85.3368 11.348 84.2915 11.348C83.5662 11.348 82.9155 11.5187 82.3395 11.86C81.7635 12.18 81.3155 12.6707 80.9955 13.332C80.6755 13.9933 80.5155 14.836 80.5155 15.86V24.5H75.5235V15.412C75.5235 14.0253 75.2355 13.0013 74.6595 12.34C74.1048 11.6787 73.3048 11.348 72.2595 11.348C71.5342 11.348 70.8835 11.5187 70.3075 11.86C69.7315 12.18 69.2835 12.6707 68.9635 13.332C68.6435 13.9933 68.4835 14.836 68.4835 15.86V24.5H63.4915V7.284H68.2595V11.988L67.3635 10.612C67.9608 9.43867 68.8035 8.55333 69.8915 7.956C71.0008 7.33733 72.2595 7.028 73.6675 7.028C75.2462 7.028 76.6222 7.43333 77.7955 8.244C78.9902 9.03333 79.7795 10.2493 80.1635 11.892L78.4035 11.412C78.9795 10.068 79.8968 9.00133 81.1555 8.212C82.4355 7.42267 83.8968 7.028 85.5395 7.028ZM105.723 24.756C103.76 24.756 102.032 24.372 100.539 23.604C99.067 22.836 97.9257 21.7907 97.115 20.468C96.3043 19.124 95.899 17.5987 95.899 15.892C95.899 14.164 96.2937 12.6387 97.083 11.316C97.8937 9.972 98.9923 8.92667 100.379 8.18C101.766 7.412 103.334 7.028 105.083 7.028C106.768 7.028 108.283 7.39067 109.627 8.116C110.992 8.82 112.07 9.844 112.859 11.188C113.648 12.5107 114.043 14.1 114.043 15.956C114.043 16.148 114.032 16.372 114.011 16.628C113.99 16.8627 113.968 17.0867 113.947 17.3H99.963V14.388H111.323L109.403 15.252C109.403 14.356 109.222 13.5773 108.859 12.916C108.496 12.2547 107.995 11.7427 107.355 11.38C106.715 10.996 105.968 10.804 105.115 10.804C104.262 10.804 103.504 10.996 102.843 11.38C102.203 11.7427 101.702 12.2653 101.339 12.948C100.976 13.6093 100.795 14.3987 100.795 15.316V16.084C100.795 17.0227 100.998 17.8547 101.403 18.58C101.83 19.284 102.416 19.828 103.163 20.212C103.931 20.5747 104.827 20.756 105.851 20.756C106.768 20.756 107.568 20.6173 108.251 20.34C108.955 20.0627 109.595 19.6467 110.171 19.092L112.827 21.972C112.038 22.868 111.046 23.5613 109.851 24.052C108.656 24.5213 107.28 24.756 105.723 24.756ZM119.255 24.756C118.401 24.756 117.665 24.468 117.047 23.892C116.449 23.2947 116.151 22.5373 116.151 21.62C116.151 20.7027 116.449 19.9667 117.047 19.412C117.665 18.836 118.401 18.548 119.255 18.548C120.129 18.548 120.865 18.836 121.463 19.412C122.06 19.9667 122.359 20.7027 122.359 21.62C122.359 22.5373 122.06 23.2947 121.463 23.892C120.865 24.468 120.129 24.756 119.255 24.756Z" fill="#101010"/>
<path d="M125.742 24.5V7.284H130.51V12.148L129.838 10.74C130.35 9.524 131.171 8.60667 132.302 7.988C133.432 7.348 134.808 7.028 136.43 7.028V11.636C136.216 11.6147 136.024 11.604 135.854 11.604C135.683 11.5827 135.502 11.572 135.31 11.572C133.944 11.572 132.835 11.9667 131.982 12.756C131.15 13.524 130.734 14.7293 130.734 16.372V24.5H125.742ZM149.605 24.756C148.154 24.756 146.885 24.436 145.797 23.796C144.709 23.156 143.856 22.1853 143.237 20.884C142.64 19.5613 142.341 17.8973 142.341 15.892C142.341 13.8653 142.629 12.2013 143.205 10.9C143.781 9.59867 144.613 8.628 145.701 7.988C146.789 7.348 148.09 7.028 149.605 7.028C151.226 7.028 152.677 7.40133 153.957 8.148C155.258 8.87333 156.282 9.89733 157.029 11.22C157.797 12.5427 158.181 14.1 158.181 15.892C158.181 17.7053 157.797 19.2733 157.029 20.596C156.282 21.9187 155.258 22.9427 153.957 23.668C152.677 24.3933 151.226 24.756 149.605 24.756ZM139.429 30.708V7.284H144.197V10.804L144.101 15.924L144.421 21.012V30.708H139.429ZM148.741 20.66C149.573 20.66 150.309 20.468 150.949 20.084C151.61 19.7 152.133 19.156 152.517 18.452C152.922 17.7267 153.125 16.8733 153.125 15.892C153.125 14.8893 152.922 14.036 152.517 13.332C152.133 12.628 151.61 12.084 150.949 11.7C150.309 11.316 149.573 11.124 148.741 11.124C147.909 11.124 147.162 11.316 146.501 11.7C145.84 12.084 145.317 12.628 144.933 13.332C144.549 14.036 144.357 14.8893 144.357 15.892C144.357 16.8733 144.549 17.7267 144.933 18.452C145.317 19.156 145.84 19.7 146.501 20.084C147.162 20.468 147.909 20.66 148.741 20.66ZM169.715 24.756C167.88 24.756 166.248 24.372 164.819 23.604C163.411 22.836 162.291 21.7907 161.459 20.468C160.648 19.124 160.243 17.5987 160.243 15.892C160.243 14.164 160.648 12.6387 161.459 11.316C162.291 9.972 163.411 8.92667 164.819 8.18C166.248 7.412 167.88 7.028 169.715 7.028C171.528 7.028 173.149 7.412 174.579 8.18C176.008 8.92667 177.128 9.96133 177.939 11.284C178.749 12.6067 179.155 14.1427 179.155 15.892C179.155 17.5987 178.749 19.124 177.939 20.468C177.128 21.7907 176.008 22.836 174.579 23.604C173.149 24.372 171.528 24.756 169.715 24.756ZM169.715 20.66C170.547 20.66 171.293 20.468 171.955 20.084C172.616 19.7 173.139 19.156 173.523 18.452C173.907 17.7267 174.099 16.8733 174.099 15.892C174.099 14.8893 173.907 14.036 173.523 13.332C173.139 12.628 172.616 12.084 171.955 11.7C171.293 11.316 170.547 11.124 169.715 11.124C168.883 11.124 168.136 11.316 167.475 11.7C166.813 12.084 166.28 12.628 165.875 13.332C165.491 14.036 165.299 14.8893 165.299 15.892C165.299 16.8733 165.491 17.7267 165.875 18.452C166.28 19.156 166.813 19.7 167.475 20.084C168.136 20.468 168.883 20.66 169.715 20.66Z" fill="#6FC727"/>
</svg>
